<?xml version="1.0" standalone="no"?>
<svg viewBox="0 0 200 200" xmlns="http://www.w3.org/2000/svg">
  <path fill="#00A78E" d="M45.8,-63.4C57.8,-54.3,64.8,-38.8,69.7,-22.9C74.5,-6.9,77.1,9.5,74.4,26.2C71.7,42.8,63.7,59.8,50.4,69.3C37.1,78.7,18.6,80.8,0.5,80.1C-17.5,79.3,-35,75.8,-46.9,65.9C-58.9,55.9,-65.3,39.6,-71.9,22.6C-78.6,5.5,-85.6,-12.3,-83,-29.1C-80.4,-45.8,-68.3,-61.6,-52.9,-69.5C-37.4,-77.4,-18.7,-77.6,-0.9,-76.3C16.9,-75.1,33.8,-72.5,45.8,-63.4Z" transform="translate(100 100)" />
</svg>
